<svg version="1.1" id="Layer_1" xmlns="http://www.w3.org/2000/svg" xmlns:xlink="http://www.w3.org/1999/xlink" x="0px" y="0px"
	 width="100%" viewBox="0 0 356 512" enable-background="new 0 0 356 512" xml:space="preserve">
<path fill="#000000" opacity="1.000000" stroke="none" 
	d="
M214.000000,513.000000 
	C142.666687,513.000000 71.833374,513.000000 1.000047,513.000000 
	C1.000032,342.333405 1.000032,171.666809 1.000016,1.000162 
	C119.666557,1.000108 238.333115,1.000108 356.999756,1.000054 
	C356.999817,171.666504 356.999817,342.333008 356.999908,512.999756 
	C309.500000,513.000000 262.000000,513.000000 214.000000,513.000000 
M12.051634,324.840393 
	C12.093026,327.897034 12.134418,330.953674 12.065395,334.877258 
	C13.358667,343.532379 14.139299,352.300842 16.024302,360.825104 
	C35.432140,448.590424 121.772087,505.008026 209.843735,488.142883 
	C299.188873,471.033905 357.574188,386.799805 343.785217,297.897461 
	C338.962708,266.805023 325.696686,239.209549 306.013489,214.811768 
	C299.836212,207.154877 292.182922,207.402435 287.696686,214.441772 
	C279.792603,226.844147 271.734467,239.184082 263.010345,251.011337 
	C259.278595,256.070435 253.714035,259.777588 248.158905,264.020966 
	C241.596436,263.923737 239.057358,261.692078 238.026733,254.230820 
	C249.674042,231.909225 256.656403,208.352737 257.163422,182.289368 
	C257.213470,180.502518 257.263519,178.715668 257.553223,176.111313 
	C256.703888,166.896988 256.321198,157.611115 254.921265,148.481216 
	C249.905121,115.767715 235.521927,87.421570 213.405441,63.042301 
	C193.951523,41.598019 170.116684,26.440243 142.622971,17.684698 
	C132.450226,14.445122 125.674355,17.672754 128.308868,29.974108 
	C132.589706,49.962723 134.029327,69.835495 131.186722,90.162193 
	C128.089478,112.309822 121.453102,133.218552 109.461266,151.982605 
	C101.853630,163.886551 92.385529,174.601486 83.876289,185.856064 
	C83.876289,185.856064 83.879417,185.731430 83.261223,185.963272 
	C82.701576,186.623016 82.141930,187.282776 80.950218,188.089233 
	C77.312279,191.211731 73.716400,194.384857 70.029419,197.448349 
	C49.286594,214.683533 34.292473,236.056671 23.904894,261.661163 
	C15.949063,281.657471 11.214214,302.258179 12.051634,324.840393 
z"/>
<path fill="#BF431D" opacity="1.000000" stroke="none" 
	d="
M248.982269,264.099060 
	C253.714035,259.777588 259.278595,256.070435 263.010345,251.011337 
	C271.734467,239.184082 279.792603,226.844147 287.696686,214.441772 
	C292.182922,207.402435 299.836212,207.154877 306.013489,214.811768 
	C325.696686,239.209549 338.962708,266.805023 343.785217,297.897461 
	C357.574188,386.799805 299.188873,471.033905 209.843735,488.142883 
	C121.772087,505.008026 35.432140,448.590424 16.024302,360.825104 
	C14.139299,352.300842 13.358667,343.532379 12.499061,334.453064 
	C14.519692,334.470734 16.228132,334.668823 17.675776,335.390228 
	C49.586586,351.293182 83.270058,355.481110 118.177353,349.893860 
	C147.720001,345.165253 173.984894,332.917877 196.990402,313.642944 
	C205.212723,306.753967 212.295990,298.548981 222.541931,293.959656 
	C229.417587,290.879944 235.493851,285.901215 241.673691,281.421570 
	C245.966217,278.309967 245.870316,274.688049 242.188614,271.728302 
	C244.582809,269.005737 246.782547,266.552399 248.982269,264.099060 
z"/>
<path fill="#EF8E1D" opacity="1.000000" stroke="none" 
	d="
M24.201225,260.971558 
	C34.292473,236.056671 49.286594,214.683533 70.029419,197.448349 
	C73.716400,194.384857 77.312279,191.211731 81.599243,187.917847 
	C82.791985,187.074783 83.335701,186.403107 83.879410,185.731430 
	C83.879417,185.731430 83.876289,185.856064 84.192734,185.866364 
	C87.676613,184.265091 90.844048,182.653534 94.012268,181.443359 
	C93.839806,186.635849 96.347824,187.691391 100.410507,186.307709 
	C102.450500,185.612961 104.423302,184.701935 106.384438,183.797531 
	C129.672623,173.058014 154.148911,166.949188 179.771896,167.183273 
	C198.777695,167.356888 217.456833,170.721710 235.403976,177.521469 
	C242.318726,180.141312 248.946060,184.242813 256.880737,183.007294 
	C256.656403,208.352737 249.674042,231.909225 237.646606,254.782257 
	C229.212585,266.583282 221.158691,277.832825 212.861328,289.291077 
	C211.095901,290.679108 209.573944,291.858429 207.679413,293.088104 
	C191.116776,299.430206 174.679016,304.540680 157.219604,306.216522 
	C121.435234,309.651337 87.828285,302.940887 56.836910,284.771637 
	C46.405598,278.656067 36.961750,270.856201 26.908344,263.581635 
	C25.900482,262.548615 25.050854,261.760071 24.201225,260.971558 
z"/>
<path fill="#EDA738" opacity="1.000000" stroke="none" 
	d="
M94.011490,181.041977 
	C90.844048,182.653534 87.676613,184.265091 84.130478,185.863144 
	C92.385529,174.601486 101.853630,163.886551 109.461266,151.982605 
	C121.453102,133.218552 128.089478,112.309822 131.186722,90.162193 
	C134.029327,69.835495 132.589706,49.962723 128.308868,29.974108 
	C125.674355,17.672754 132.450226,14.445122 142.622971,17.684698 
	C170.116684,26.440243 193.951523,41.598019 213.405441,63.042301 
	C235.521927,87.421570 249.905121,115.767715 254.921265,148.481216 
	C256.321198,157.611115 256.703888,166.896988 257.106110,176.480530 
	C253.786652,175.562576 250.881775,174.342865 248.047241,172.977203 
	C230.145386,164.352188 211.137695,159.490585 191.454666,158.173737 
	C156.756683,155.852325 124.007805,162.834915 94.011490,181.041977 
z"/>
<path fill="#E75723" opacity="1.000000" stroke="none" 
	d="
M24.053059,261.316345 
	C25.050854,261.760071 25.900482,262.548615 26.824402,263.953613 
	C25.008533,271.548645 30.080847,275.059906 34.389137,278.460480 
	C46.684372,288.165222 59.797108,296.631409 74.344681,302.662476 
	C94.028587,310.822937 114.445251,315.472015 135.820419,316.060974 
	C151.238525,316.485779 166.294312,314.405823 181.256363,311.008911 
	C183.091736,310.592194 185.113235,310.995239 186.852905,311.291748 
	C158.890961,332.242554 127.294945,341.926117 93.075226,342.777863 
	C71.477272,343.315430 50.346218,339.495819 30.188231,331.262756 
	C24.199879,328.816956 18.208719,326.378021 12.218840,323.935913 
	C11.214214,302.258179 15.949063,281.657471 24.053059,261.316345 
z"/>
<path fill="#B6401B" opacity="1.000000" stroke="none" 
	d="
M12.135239,324.388153 
	C18.208719,326.378021 24.199879,328.816956 30.188231,331.262756 
	C50.346218,339.495819 71.477272,343.315430 93.075226,342.777863 
	C127.294945,341.926117 158.890961,332.242554 187.186127,311.208771 
	C194.493958,304.914246 201.272964,298.976013 208.051971,293.037750 
	C209.573944,291.858429 211.095901,290.679108 213.215088,289.240051 
	C223.206268,283.319397 232.600204,277.658447 241.994156,271.997498 
	C245.870316,274.688049 245.966217,278.309967 241.673691,281.421570 
	C235.493851,285.901215 229.417587,290.879944 222.541931,293.959656 
	C212.295990,298.548981 205.212723,306.753967 196.990402,313.642944 
	C173.984894,332.917877 147.720001,345.165253 118.177353,349.893860 
	C83.270058,355.481110 49.586586,351.293182 17.675776,335.390228 
	C16.228132,334.668823 14.519692,334.470734 12.554268,334.019592 
	C12.134418,330.953674 12.093026,327.897034 12.135239,324.388153 
z"/>
<path fill="#E2871B" opacity="1.000000" stroke="none" 
	d="
M94.012268,181.443359 
	C124.007805,162.834915 156.756683,155.852325 191.454666,158.173737 
	C211.137695,159.490585 230.145386,164.352188 248.047241,172.977203 
	C250.881775,174.342865 253.786652,175.562576 256.986267,176.889282 
	C257.263519,178.715668 257.213470,180.502518 257.022095,182.648331 
	C248.946060,184.242813 242.318726,180.141312 235.403976,177.521469 
	C217.456833,170.721710 198.777695,167.356888 179.771896,167.183273 
	C154.148911,166.949188 129.672623,173.058014 106.384438,183.797531 
	C104.423302,184.701935 102.450500,185.612961 100.410507,186.307709 
	C96.347824,187.691391 93.839806,186.635849 94.012268,181.443359 
z"/>
<path fill="#DF5521" opacity="1.000000" stroke="none" 
	d="
M242.188614,271.728302 
	C232.600204,277.658447 223.206268,283.319397 213.458557,289.031372 
	C221.158691,277.832825 229.212585,266.583282 237.524017,255.116867 
	C239.057358,261.692078 241.596436,263.923737 248.570587,264.059998 
	C246.782547,266.552399 244.582809,269.005737 242.188614,271.728302 
z"/>
<path fill="#EDA738" opacity="1.000000" stroke="none" 
	d="
M83.570312,185.847351 
	C83.335701,186.403107 82.791985,187.074783 81.915283,187.844482 
	C82.141930,187.282776 82.701576,186.623016 83.570312,185.847351 
z"/>
<path fill="#DC5421" opacity="1.000000" stroke="none" 
	d="
M207.679398,293.088104 
	C201.272964,298.976013 194.493958,304.914246 187.381714,310.935425 
	C185.113235,310.995239 183.091736,310.592194 181.256363,311.008911 
	C166.294312,314.405823 151.238525,316.485779 135.820419,316.060974 
	C114.445251,315.472015 94.028587,310.822937 74.344681,302.662476 
	C59.797108,296.631409 46.684372,288.165222 34.389137,278.460480 
	C30.080847,275.059906 25.008533,271.548645 26.982637,264.198120 
	C36.961750,270.856201 46.405598,278.656067 56.836910,284.771637 
	C87.828285,302.940887 121.435234,309.651337 157.219604,306.216522 
	C174.679016,304.540680 191.116776,299.430206 207.679398,293.088104 
z"/>
</svg>